<?xml version="1.0" encoding="UTF-8" standalone="no"?>
<!DOCTYPE svg PUBLIC "-//W3C//DTD SVG 1.1//EN"
 "http://www.w3.org/Graphics/SVG/1.1/DTD/svg11.dtd">
<!-- Generated by graphviz version 2.50.0 (20211204.2007)
 -->
<!-- Title: G Pages: 1 -->
<svg width="1091pt" height="1024pt"
 viewBox="0.00 0.00 1208.50 1134.00" xmlns="http://www.w3.org/2000/svg" xmlns:xlink="http://www.w3.org/1999/xlink">
<g id="graph0" class="graph" transform="scale(0.9 0.9) rotate(0) translate(4 1130)">
<title>G</title>
<polygon fill="white" stroke="transparent" points="-4,4 -4,-1130 1204.5,-1130 1204.5,4 -4,4"/>
<!-- 2732428572800 -->
<g id="node1" class="node">
<title>2732428572800</title>
<polygon fill="none" stroke="black" points="190.5,-1079.5 190.5,-1125.5 408.5,-1125.5 408.5,-1079.5 190.5,-1079.5"/>
<text text-anchor="middle" x="232" y="-1110.3" font-family="Times New Roman,serif" font-size="14.00">input&#45;movie</text>
<polyline fill="none" stroke="black" points="190.5,-1102.5 273.5,-1102.5 "/>
<text text-anchor="middle" x="232" y="-1087.3" font-family="Times New Roman,serif" font-size="14.00">InputLayer</text>
<polyline fill="none" stroke="black" points="273.5,-1079.5 273.5,-1125.5 "/>
<text text-anchor="middle" x="301.5" y="-1110.3" font-family="Times New Roman,serif" font-size="14.00">input:</text>
<polyline fill="none" stroke="black" points="273.5,-1102.5 329.5,-1102.5 "/>
<text text-anchor="middle" x="301.5" y="-1087.3" font-family="Times New Roman,serif" font-size="14.00">output:</text>
<polyline fill="none" stroke="black" points="329.5,-1079.5 329.5,-1125.5 "/>
<text text-anchor="middle" x="369" y="-1110.3" font-family="Times New Roman,serif" font-size="14.00">[(None, 1)]</text>
<polyline fill="none" stroke="black" points="329.5,-1102.5 408.5,-1102.5 "/>
<text text-anchor="middle" x="369" y="-1087.3" font-family="Times New Roman,serif" font-size="14.00">[(None, 1)]</text>
</g>
<!-- 2732432218624 -->
<g id="node3" class="node">
<title>2732432218624</title>
<polygon fill="none" stroke="black" points="307,-996.5 307,-1042.5 602,-1042.5 602,-996.5 307,-996.5"/>
<text text-anchor="middle" x="381" y="-1027.3" font-family="Times New Roman,serif" font-size="14.00">mlp_movie_embedding</text>
<polyline fill="none" stroke="black" points="307,-1019.5 455,-1019.5 "/>
<text text-anchor="middle" x="381" y="-1004.3" font-family="Times New Roman,serif" font-size="14.00">Embedding</text>
<polyline fill="none" stroke="black" points="455,-996.5 455,-1042.5 "/>
<text text-anchor="middle" x="483" y="-1027.3" font-family="Times New Roman,serif" font-size="14.00">input:</text>
<polyline fill="none" stroke="black" points="455,-1019.5 511,-1019.5 "/>
<text text-anchor="middle" x="483" y="-1004.3" font-family="Times New Roman,serif" font-size="14.00">output:</text>
<polyline fill="none" stroke="black" points="511,-996.5 511,-1042.5 "/>
<text text-anchor="middle" x="556.5" y="-1027.3" font-family="Times New Roman,serif" font-size="14.00">(None, 1)</text>
<polyline fill="none" stroke="black" points="511,-1019.5 602,-1019.5 "/>
<text text-anchor="middle" x="556.5" y="-1004.3" font-family="Times New Roman,serif" font-size="14.00">(None, 1, 50)</text>
</g>
<!-- 2732428572800&#45;&gt;2732432218624 -->
<g id="edge1" class="edge">
<title>2732428572800&#45;&gt;2732432218624</title>
<path fill="none" stroke="black" d="M341.85,-1079.37C360.82,-1069.46 383.35,-1057.68 403.26,-1047.28"/>
<polygon fill="black" stroke="black" points="404.96,-1050.34 412.2,-1042.61 401.71,-1044.14 404.96,-1050.34"/>
</g>
<!-- 2732432218432 -->
<g id="node13" class="node">
<title>2732432218432</title>
<polygon fill="none" stroke="black" points="0,-996.5 0,-1042.5 289,-1042.5 289,-996.5 0,-996.5"/>
<text text-anchor="middle" x="71" y="-1027.3" font-family="Times New Roman,serif" font-size="14.00">mf_movie_embedding</text>
<polyline fill="none" stroke="black" points="0,-1019.5 142,-1019.5 "/>
<text text-anchor="middle" x="71" y="-1004.3" font-family="Times New Roman,serif" font-size="14.00">Embedding</text>
<polyline fill="none" stroke="black" points="142,-996.5 142,-1042.5 "/>
<text text-anchor="middle" x="170" y="-1027.3" font-family="Times New Roman,serif" font-size="14.00">input:</text>
<polyline fill="none" stroke="black" points="142,-1019.5 198,-1019.5 "/>
<text text-anchor="middle" x="170" y="-1004.3" font-family="Times New Roman,serif" font-size="14.00">output:</text>
<polyline fill="none" stroke="black" points="198,-996.5 198,-1042.5 "/>
<text text-anchor="middle" x="243.5" y="-1027.3" font-family="Times New Roman,serif" font-size="14.00">(None, 1)</text>
<polyline fill="none" stroke="black" points="198,-1019.5 289,-1019.5 "/>
<text text-anchor="middle" x="243.5" y="-1004.3" font-family="Times New Roman,serif" font-size="14.00">(None, 1, 50)</text>
</g>
<!-- 2732428572800&#45;&gt;2732432218432 -->
<g id="edge12" class="edge">
<title>2732428572800&#45;&gt;2732432218432</title>
<path fill="none" stroke="black" d="M257.15,-1079.37C238.18,-1069.46 215.65,-1057.68 195.74,-1047.28"/>
<polygon fill="black" stroke="black" points="197.29,-1044.14 186.8,-1042.61 194.04,-1050.34 197.29,-1044.14"/>
</g>
<!-- 2732428573088 -->
<g id="node2" class="node">
<title>2732428573088</title>
<polygon fill="none" stroke="black" points="802.5,-1079.5 802.5,-1125.5 1014.5,-1125.5 1014.5,-1079.5 802.5,-1079.5"/>
<text text-anchor="middle" x="841" y="-1110.3" font-family="Times New Roman,serif" font-size="14.00">input&#45;user</text>
<polyline fill="none" stroke="black" points="802.5,-1102.5 879.5,-1102.5 "/>
<text text-anchor="middle" x="841" y="-1087.3" font-family="Times New Roman,serif" font-size="14.00">InputLayer</text>
<polyline fill="none" stroke="black" points="879.5,-1079.5 879.5,-1125.5 "/>
<text text-anchor="middle" x="907.5" y="-1110.3" font-family="Times New Roman,serif" font-size="14.00">input:</text>
<polyline fill="none" stroke="black" points="879.5,-1102.5 935.5,-1102.5 "/>
<text text-anchor="middle" x="907.5" y="-1087.3" font-family="Times New Roman,serif" font-size="14.00">output:</text>
<polyline fill="none" stroke="black" points="935.5,-1079.5 935.5,-1125.5 "/>
<text text-anchor="middle" x="975" y="-1110.3" font-family="Times New Roman,serif" font-size="14.00">[(None, 1)]</text>
<polyline fill="none" stroke="black" points="935.5,-1102.5 1014.5,-1102.5 "/>
<text text-anchor="middle" x="975" y="-1087.3" font-family="Times New Roman,serif" font-size="14.00">[(None, 1)]</text>
</g>
<!-- 2731940292544 -->
<g id="node4" class="node">
<title>2731940292544</title>
<polygon fill="none" stroke="black" points="916.5,-996.5 916.5,-1042.5 1200.5,-1042.5 1200.5,-996.5 916.5,-996.5"/>
<text text-anchor="middle" x="985" y="-1027.3" font-family="Times New Roman,serif" font-size="14.00">mlp_user_embedding</text>
<polyline fill="none" stroke="black" points="916.5,-1019.5 1053.5,-1019.5 "/>
<text text-anchor="middle" x="985" y="-1004.3" font-family="Times New Roman,serif" font-size="14.00">Embedding</text>
<polyline fill="none" stroke="black" points="1053.5,-996.5 1053.5,-1042.5 "/>
<text text-anchor="middle" x="1081.5" y="-1027.3" font-family="Times New Roman,serif" font-size="14.00">input:</text>
<polyline fill="none" stroke="black" points="1053.5,-1019.5 1109.5,-1019.5 "/>
<text text-anchor="middle" x="1081.5" y="-1004.3" font-family="Times New Roman,serif" font-size="14.00">output:</text>
<polyline fill="none" stroke="black" points="1109.5,-996.5 1109.5,-1042.5 "/>
<text text-anchor="middle" x="1155" y="-1027.3" font-family="Times New Roman,serif" font-size="14.00">(None, 1)</text>
<polyline fill="none" stroke="black" points="1109.5,-1019.5 1200.5,-1019.5 "/>
<text text-anchor="middle" x="1155" y="-1004.3" font-family="Times New Roman,serif" font-size="14.00">(None, 1, 50)</text>
</g>
<!-- 2732428573088&#45;&gt;2731940292544 -->
<g id="edge2" class="edge">
<title>2732428573088&#45;&gt;2731940292544</title>
<path fill="none" stroke="black" d="M949.49,-1079.37C967.76,-1069.5 989.45,-1057.79 1008.65,-1047.42"/>
<polygon fill="black" stroke="black" points="1010.43,-1050.44 1017.56,-1042.61 1007.1,-1044.28 1010.43,-1050.44"/>
</g>
<!-- 2732432217424 -->
<g id="node14" class="node">
<title>2732432217424</title>
<polygon fill="none" stroke="black" points="620.5,-996.5 620.5,-1042.5 898.5,-1042.5 898.5,-996.5 620.5,-996.5"/>
<text text-anchor="middle" x="686" y="-1027.3" font-family="Times New Roman,serif" font-size="14.00">mf_user_embedding</text>
<polyline fill="none" stroke="black" points="620.5,-1019.5 751.5,-1019.5 "/>
<text text-anchor="middle" x="686" y="-1004.3" font-family="Times New Roman,serif" font-size="14.00">Embedding</text>
<polyline fill="none" stroke="black" points="751.5,-996.5 751.5,-1042.5 "/>
<text text-anchor="middle" x="779.5" y="-1027.3" font-family="Times New Roman,serif" font-size="14.00">input:</text>
<polyline fill="none" stroke="black" points="751.5,-1019.5 807.5,-1019.5 "/>
<text text-anchor="middle" x="779.5" y="-1004.3" font-family="Times New Roman,serif" font-size="14.00">output:</text>
<polyline fill="none" stroke="black" points="807.5,-996.5 807.5,-1042.5 "/>
<text text-anchor="middle" x="853" y="-1027.3" font-family="Times New Roman,serif" font-size="14.00">(None, 1)</text>
<polyline fill="none" stroke="black" points="807.5,-1019.5 898.5,-1019.5 "/>
<text text-anchor="middle" x="853" y="-1004.3" font-family="Times New Roman,serif" font-size="14.00">(None, 1, 50)</text>
</g>
<!-- 2732428573088&#45;&gt;2732432217424 -->
<g id="edge13" class="edge">
<title>2732428573088&#45;&gt;2732432217424</title>
<path fill="none" stroke="black" d="M867.79,-1079.37C849.64,-1069.5 828.09,-1057.79 809.02,-1047.42"/>
<polygon fill="black" stroke="black" points="810.62,-1044.31 800.17,-1042.61 807.28,-1050.46 810.62,-1044.31"/>
</g>
<!-- 2732595255136 -->
<g id="node5" class="node">
<title>2732595255136</title>
<polygon fill="none" stroke="black" points="328,-913.5 328,-959.5 595,-959.5 595,-913.5 328,-913.5"/>
<text text-anchor="middle" x="388" y="-944.3" font-family="Times New Roman,serif" font-size="14.00">mlp_movie_flatten</text>
<polyline fill="none" stroke="black" points="328,-936.5 448,-936.5 "/>
<text text-anchor="middle" x="388" y="-921.3" font-family="Times New Roman,serif" font-size="14.00">Flatten</text>
<polyline fill="none" stroke="black" points="448,-913.5 448,-959.5 "/>
<text text-anchor="middle" x="476" y="-944.3" font-family="Times New Roman,serif" font-size="14.00">input:</text>
<polyline fill="none" stroke="black" points="448,-936.5 504,-936.5 "/>
<text text-anchor="middle" x="476" y="-921.3" font-family="Times New Roman,serif" font-size="14.00">output:</text>
<polyline fill="none" stroke="black" points="504,-913.5 504,-959.5 "/>
<text text-anchor="middle" x="549.5" y="-944.3" font-family="Times New Roman,serif" font-size="14.00">(None, 1, 50)</text>
<polyline fill="none" stroke="black" points="504,-936.5 595,-936.5 "/>
<text text-anchor="middle" x="549.5" y="-921.3" font-family="Times New Roman,serif" font-size="14.00">(None, 50)</text>
</g>
<!-- 2732432218624&#45;&gt;2732595255136 -->
<g id="edge3" class="edge">
<title>2732432218624&#45;&gt;2732595255136</title>
<path fill="none" stroke="black" d="M456.41,-996.37C457.12,-988.15 457.94,-978.66 458.72,-969.73"/>
<polygon fill="black" stroke="black" points="462.22,-969.87 459.59,-959.61 455.24,-969.27 462.22,-969.87"/>
</g>
<!-- 2732572485280 -->
<g id="node6" class="node">
<title>2732572485280</title>
<polygon fill="none" stroke="black" points="916,-913.5 916,-959.5 1173,-959.5 1173,-913.5 916,-913.5"/>
<text text-anchor="middle" x="971" y="-944.3" font-family="Times New Roman,serif" font-size="14.00">mlp_user_flatten</text>
<polyline fill="none" stroke="black" points="916,-936.5 1026,-936.5 "/>
<text text-anchor="middle" x="971" y="-921.3" font-family="Times New Roman,serif" font-size="14.00">Flatten</text>
<polyline fill="none" stroke="black" points="1026,-913.5 1026,-959.5 "/>
<text text-anchor="middle" x="1054" y="-944.3" font-family="Times New Roman,serif" font-size="14.00">input:</text>
<polyline fill="none" stroke="black" points="1026,-936.5 1082,-936.5 "/>
<text text-anchor="middle" x="1054" y="-921.3" font-family="Times New Roman,serif" font-size="14.00">output:</text>
<polyline fill="none" stroke="black" points="1082,-913.5 1082,-959.5 "/>
<text text-anchor="middle" x="1127.5" y="-944.3" font-family="Times New Roman,serif" font-size="14.00">(None, 1, 50)</text>
<polyline fill="none" stroke="black" points="1082,-936.5 1173,-936.5 "/>
<text text-anchor="middle" x="1127.5" y="-921.3" font-family="Times New Roman,serif" font-size="14.00">(None, 50)</text>
</g>
<!-- 2731940292544&#45;&gt;2732572485280 -->
<g id="edge4" class="edge">
<title>2731940292544&#45;&gt;2732572485280</title>
<path fill="none" stroke="black" d="M1054.67,-996.37C1053.25,-988.15 1051.61,-978.66 1050.07,-969.73"/>
<polygon fill="black" stroke="black" points="1053.47,-968.86 1048.32,-959.61 1046.58,-970.06 1053.47,-968.86"/>
</g>
<!-- 2732575281696 -->
<g id="node7" class="node">
<title>2732575281696</title>
<polygon fill="none" stroke="black" points="578,-830.5 578,-876.5 873,-876.5 873,-830.5 578,-830.5"/>
<text text-anchor="middle" x="621" y="-861.3" font-family="Times New Roman,serif" font-size="14.00">concatenate</text>
<polyline fill="none" stroke="black" points="578,-853.5 664,-853.5 "/>
<text text-anchor="middle" x="621" y="-838.3" font-family="Times New Roman,serif" font-size="14.00">Concatenate</text>
<polyline fill="none" stroke="black" points="664,-830.5 664,-876.5 "/>
<text text-anchor="middle" x="692" y="-861.3" font-family="Times New Roman,serif" font-size="14.00">input:</text>
<polyline fill="none" stroke="black" points="664,-853.5 720,-853.5 "/>
<text text-anchor="middle" x="692" y="-838.3" font-family="Times New Roman,serif" font-size="14.00">output:</text>
<polyline fill="none" stroke="black" points="720,-830.5 720,-876.5 "/>
<text text-anchor="middle" x="796.5" y="-861.3" font-family="Times New Roman,serif" font-size="14.00">[(None, 50), (None, 50)]</text>
<polyline fill="none" stroke="black" points="720,-853.5 873,-853.5 "/>
<text text-anchor="middle" x="796.5" y="-838.3" font-family="Times New Roman,serif" font-size="14.00">(None, 100)</text>
</g>
<!-- 2732595255136&#45;&gt;2732575281696 -->
<g id="edge5" class="edge">
<title>2732595255136&#45;&gt;2732575281696</title>
<path fill="none" stroke="black" d="M533.29,-913.47C567.48,-902.98 608.54,-890.39 643.91,-879.53"/>
<polygon fill="black" stroke="black" points="645.19,-882.8 653.72,-876.52 643.14,-876.11 645.19,-882.8"/>
</g>
<!-- 2732572485280&#45;&gt;2732575281696 -->
<g id="edge6" class="edge">
<title>2732572485280&#45;&gt;2732575281696</title>
<path fill="none" stroke="black" d="M957.75,-913.47C915.82,-902.83 865.34,-890.01 822.18,-879.05"/>
<polygon fill="black" stroke="black" points="822.78,-875.59 812.23,-876.52 821.06,-882.38 822.78,-875.59"/>
</g>
<!-- 2732575284384 -->
<g id="node8" class="node">
<title>2732575284384</title>
<polygon fill="none" stroke="black" points="615,-747.5 615,-793.5 818,-793.5 818,-747.5 615,-747.5"/>
<text text-anchor="middle" x="647" y="-778.3" font-family="Times New Roman,serif" font-size="14.00">dropout</text>
<polyline fill="none" stroke="black" points="615,-770.5 679,-770.5 "/>
<text text-anchor="middle" x="647" y="-755.3" font-family="Times New Roman,serif" font-size="14.00">Dropout</text>
<polyline fill="none" stroke="black" points="679,-747.5 679,-793.5 "/>
<text text-anchor="middle" x="707" y="-778.3" font-family="Times New Roman,serif" font-size="14.00">input:</text>
<polyline fill="none" stroke="black" points="679,-770.5 735,-770.5 "/>
<text text-anchor="middle" x="707" y="-755.3" font-family="Times New Roman,serif" font-size="14.00">output:</text>
<polyline fill="none" stroke="black" points="735,-747.5 735,-793.5 "/>
<text text-anchor="middle" x="776.5" y="-778.3" font-family="Times New Roman,serif" font-size="14.00">(None, 100)</text>
<polyline fill="none" stroke="black" points="735,-770.5 818,-770.5 "/>
<text text-anchor="middle" x="776.5" y="-755.3" font-family="Times New Roman,serif" font-size="14.00">(None, 100)</text>
</g>
<!-- 2732575281696&#45;&gt;2732575284384 -->
<g id="edge7" class="edge">
<title>2732575281696&#45;&gt;2732575284384</title>
<path fill="none" stroke="black" d="M723.04,-830.37C722.13,-822.15 721.07,-812.66 720.08,-803.73"/>
<polygon fill="black" stroke="black" points="723.54,-803.16 718.96,-793.61 716.58,-803.93 723.54,-803.16"/>
</g>
<!-- 2732575316672 -->
<g id="node9" class="node">
<title>2732575316672</title>
<polygon fill="none" stroke="black" points="585,-664.5 585,-710.5 816,-710.5 816,-664.5 585,-664.5"/>
<text text-anchor="middle" x="631" y="-695.3" font-family="Times New Roman,serif" font-size="14.00">mlp_dense_1</text>
<polyline fill="none" stroke="black" points="585,-687.5 677,-687.5 "/>
<text text-anchor="middle" x="631" y="-672.3" font-family="Times New Roman,serif" font-size="14.00">Dense</text>
<polyline fill="none" stroke="black" points="677,-664.5 677,-710.5 "/>
<text text-anchor="middle" x="705" y="-695.3" font-family="Times New Roman,serif" font-size="14.00">input:</text>
<polyline fill="none" stroke="black" points="677,-687.5 733,-687.5 "/>
<text text-anchor="middle" x="705" y="-672.3" font-family="Times New Roman,serif" font-size="14.00">output:</text>
<polyline fill="none" stroke="black" points="733,-664.5 733,-710.5 "/>
<text text-anchor="middle" x="774.5" y="-695.3" font-family="Times New Roman,serif" font-size="14.00">(None, 100)</text>
<polyline fill="none" stroke="black" points="733,-687.5 816,-687.5 "/>
<text text-anchor="middle" x="774.5" y="-672.3" font-family="Times New Roman,serif" font-size="14.00">(None, 32)</text>
</g>
<!-- 2732575284384&#45;&gt;2732575316672 -->
<g id="edge8" class="edge">
<title>2732575284384&#45;&gt;2732575316672</title>
<path fill="none" stroke="black" d="M712.13,-747.37C710.49,-739.06 708.59,-729.45 706.81,-720.43"/>
<polygon fill="black" stroke="black" points="710.24,-719.74 704.87,-710.61 703.37,-721.1 710.24,-719.74"/>
</g>
<!-- 2731940291344 -->
<g id="node10" class="node">
<title>2731940291344</title>
<polygon fill="none" stroke="black" points="562.5,-581.5 562.5,-627.5 822.5,-627.5 822.5,-581.5 562.5,-581.5"/>
<text text-anchor="middle" x="626" y="-612.3" font-family="Times New Roman,serif" font-size="14.00">mlp_batch_norm_1</text>
<polyline fill="none" stroke="black" points="562.5,-604.5 689.5,-604.5 "/>
<text text-anchor="middle" x="626" y="-589.3" font-family="Times New Roman,serif" font-size="14.00">BatchNormalization</text>
<polyline fill="none" stroke="black" points="689.5,-581.5 689.5,-627.5 "/>
<text text-anchor="middle" x="717.5" y="-612.3" font-family="Times New Roman,serif" font-size="14.00">input:</text>
<polyline fill="none" stroke="black" points="689.5,-604.5 745.5,-604.5 "/>
<text text-anchor="middle" x="717.5" y="-589.3" font-family="Times New Roman,serif" font-size="14.00">output:</text>
<polyline fill="none" stroke="black" points="745.5,-581.5 745.5,-627.5 "/>
<text text-anchor="middle" x="784" y="-612.3" font-family="Times New Roman,serif" font-size="14.00">(None, 32)</text>
<polyline fill="none" stroke="black" points="745.5,-604.5 822.5,-604.5 "/>
<text text-anchor="middle" x="784" y="-589.3" font-family="Times New Roman,serif" font-size="14.00">(None, 32)</text>
</g>
<!-- 2732575316672&#45;&gt;2731940291344 -->
<g id="edge9" class="edge">
<title>2732575316672&#45;&gt;2731940291344</title>
<path fill="none" stroke="black" d="M698.31,-664.37C697.5,-656.15 696.56,-646.66 695.68,-637.73"/>
<polygon fill="black" stroke="black" points="699.15,-637.21 694.68,-627.61 692.18,-637.9 699.15,-637.21"/>
</g>
<!-- 2732575314416 -->
<g id="node11" class="node">
<title>2732575314416</title>
<polygon fill="none" stroke="black" points="579,-498.5 579,-544.5 788,-544.5 788,-498.5 579,-498.5"/>
<text text-anchor="middle" x="617" y="-529.3" font-family="Times New Roman,serif" font-size="14.00">dropout_1</text>
<polyline fill="none" stroke="black" points="579,-521.5 655,-521.5 "/>
<text text-anchor="middle" x="617" y="-506.3" font-family="Times New Roman,serif" font-size="14.00">Dropout</text>
<polyline fill="none" stroke="black" points="655,-498.5 655,-544.5 "/>
<text text-anchor="middle" x="683" y="-529.3" font-family="Times New Roman,serif" font-size="14.00">input:</text>
<polyline fill="none" stroke="black" points="655,-521.5 711,-521.5 "/>
<text text-anchor="middle" x="683" y="-506.3" font-family="Times New Roman,serif" font-size="14.00">output:</text>
<polyline fill="none" stroke="black" points="711,-498.5 711,-544.5 "/>
<text text-anchor="middle" x="749.5" y="-529.3" font-family="Times New Roman,serif" font-size="14.00">(None, 32)</text>
<polyline fill="none" stroke="black" points="711,-521.5 788,-521.5 "/>
<text text-anchor="middle" x="749.5" y="-506.3" font-family="Times New Roman,serif" font-size="14.00">(None, 32)</text>
</g>
<!-- 2731940291344&#45;&gt;2732575314416 -->
<g id="edge10" class="edge">
<title>2731940291344&#45;&gt;2732575314416</title>
<path fill="none" stroke="black" d="M690.04,-581.37C689.13,-573.15 688.07,-563.66 687.08,-554.73"/>
<polygon fill="black" stroke="black" points="690.54,-554.16 685.96,-544.61 683.58,-554.93 690.54,-554.16"/>
</g>
<!-- 2732575168352 -->
<g id="node12" class="node">
<title>2732575168352</title>
<polygon fill="none" stroke="black" points="555,-415.5 555,-461.5 780,-461.5 780,-415.5 555,-415.5"/>
<text text-anchor="middle" x="601" y="-446.3" font-family="Times New Roman,serif" font-size="14.00">mlp_dense_2</text>
<polyline fill="none" stroke="black" points="555,-438.5 647,-438.5 "/>
<text text-anchor="middle" x="601" y="-423.3" font-family="Times New Roman,serif" font-size="14.00">Dense</text>
<polyline fill="none" stroke="black" points="647,-415.5 647,-461.5 "/>
<text text-anchor="middle" x="675" y="-446.3" font-family="Times New Roman,serif" font-size="14.00">input:</text>
<polyline fill="none" stroke="black" points="647,-438.5 703,-438.5 "/>
<text text-anchor="middle" x="675" y="-423.3" font-family="Times New Roman,serif" font-size="14.00">output:</text>
<polyline fill="none" stroke="black" points="703,-415.5 703,-461.5 "/>
<text text-anchor="middle" x="741.5" y="-446.3" font-family="Times New Roman,serif" font-size="14.00">(None, 32)</text>
<polyline fill="none" stroke="black" points="703,-438.5 780,-438.5 "/>
<text text-anchor="middle" x="741.5" y="-423.3" font-family="Times New Roman,serif" font-size="14.00">(None, 16)</text>
</g>
<!-- 2732575314416&#45;&gt;2732575168352 -->
<g id="edge11" class="edge">
<title>2732575314416&#45;&gt;2732575168352</title>
<path fill="none" stroke="black" d="M679.13,-498.37C677.49,-490.06 675.59,-480.45 673.81,-471.43"/>
<polygon fill="black" stroke="black" points="677.24,-470.74 671.87,-461.61 670.37,-472.1 677.24,-470.74"/>
</g>
<!-- 2731964710816 -->
<g id="node15" class="node">
<title>2731964710816</title>
<polygon fill="none" stroke="black" points="529.5,-332.5 529.5,-378.5 789.5,-378.5 789.5,-332.5 529.5,-332.5"/>
<text text-anchor="middle" x="593" y="-363.3" font-family="Times New Roman,serif" font-size="14.00">mlp_batch_norm_2</text>
<polyline fill="none" stroke="black" points="529.5,-355.5 656.5,-355.5 "/>
<text text-anchor="middle" x="593" y="-340.3" font-family="Times New Roman,serif" font-size="14.00">BatchNormalization</text>
<polyline fill="none" stroke="black" points="656.5,-332.5 656.5,-378.5 "/>
<text text-anchor="middle" x="684.5" y="-363.3" font-family="Times New Roman,serif" font-size="14.00">input:</text>
<polyline fill="none" stroke="black" points="656.5,-355.5 712.5,-355.5 "/>
<text text-anchor="middle" x="684.5" y="-340.3" font-family="Times New Roman,serif" font-size="14.00">output:</text>
<polyline fill="none" stroke="black" points="712.5,-332.5 712.5,-378.5 "/>
<text text-anchor="middle" x="751" y="-363.3" font-family="Times New Roman,serif" font-size="14.00">(None, 16)</text>
<polyline fill="none" stroke="black" points="712.5,-355.5 789.5,-355.5 "/>
<text text-anchor="middle" x="751" y="-340.3" font-family="Times New Roman,serif" font-size="14.00">(None, 16)</text>
</g>
<!-- 2732575168352&#45;&gt;2731964710816 -->
<g id="edge14" class="edge">
<title>2732575168352&#45;&gt;2731964710816</title>
<path fill="none" stroke="black" d="M665.31,-415.37C664.5,-407.15 663.56,-397.66 662.68,-388.73"/>
<polygon fill="black" stroke="black" points="666.15,-388.21 661.68,-378.61 659.18,-388.9 666.15,-388.21"/>
</g>
<!-- 2731939721760 -->
<g id="node16" class="node">
<title>2731939721760</title>
<polygon fill="none" stroke="black" points="35,-913.5 35,-959.5 296,-959.5 296,-913.5 35,-913.5"/>
<text text-anchor="middle" x="92" y="-944.3" font-family="Times New Roman,serif" font-size="14.00">mf_movie_flatten</text>
<polyline fill="none" stroke="black" points="35,-936.5 149,-936.5 "/>
<text text-anchor="middle" x="92" y="-921.3" font-family="Times New Roman,serif" font-size="14.00">Flatten</text>
<polyline fill="none" stroke="black" points="149,-913.5 149,-959.5 "/>
<text text-anchor="middle" x="177" y="-944.3" font-family="Times New Roman,serif" font-size="14.00">input:</text>
<polyline fill="none" stroke="black" points="149,-936.5 205,-936.5 "/>
<text text-anchor="middle" x="177" y="-921.3" font-family="Times New Roman,serif" font-size="14.00">output:</text>
<polyline fill="none" stroke="black" points="205,-913.5 205,-959.5 "/>
<text text-anchor="middle" x="250.5" y="-944.3" font-family="Times New Roman,serif" font-size="14.00">(None, 1, 50)</text>
<polyline fill="none" stroke="black" points="205,-936.5 296,-936.5 "/>
<text text-anchor="middle" x="250.5" y="-921.3" font-family="Times New Roman,serif" font-size="14.00">(None, 50)</text>
</g>
<!-- 2732432218432&#45;&gt;2731939721760 -->
<g id="edge15" class="edge">
<title>2732432218432&#45;&gt;2731939721760</title>
<path fill="none" stroke="black" d="M150.24,-996.37C152.39,-988.06 154.88,-978.45 157.22,-969.43"/>
<polygon fill="black" stroke="black" points="160.65,-970.17 159.77,-959.61 153.87,-968.41 160.65,-970.17"/>
</g>
<!-- 2732480970864 -->
<g id="node17" class="node">
<title>2732480970864</title>
<polygon fill="none" stroke="black" points="627,-913.5 627,-959.5 878,-959.5 878,-913.5 627,-913.5"/>
<text text-anchor="middle" x="679" y="-944.3" font-family="Times New Roman,serif" font-size="14.00">mf_user_flatten</text>
<polyline fill="none" stroke="black" points="627,-936.5 731,-936.5 "/>
<text text-anchor="middle" x="679" y="-921.3" font-family="Times New Roman,serif" font-size="14.00">Flatten</text>
<polyline fill="none" stroke="black" points="731,-913.5 731,-959.5 "/>
<text text-anchor="middle" x="759" y="-944.3" font-family="Times New Roman,serif" font-size="14.00">input:</text>
<polyline fill="none" stroke="black" points="731,-936.5 787,-936.5 "/>
<text text-anchor="middle" x="759" y="-921.3" font-family="Times New Roman,serif" font-size="14.00">output:</text>
<polyline fill="none" stroke="black" points="787,-913.5 787,-959.5 "/>
<text text-anchor="middle" x="832.5" y="-944.3" font-family="Times New Roman,serif" font-size="14.00">(None, 1, 50)</text>
<polyline fill="none" stroke="black" points="787,-936.5 878,-936.5 "/>
<text text-anchor="middle" x="832.5" y="-921.3" font-family="Times New Roman,serif" font-size="14.00">(None, 50)</text>
</g>
<!-- 2732432217424&#45;&gt;2732480970864 -->
<g id="edge16" class="edge">
<title>2732432217424&#45;&gt;2732480970864</title>
<path fill="none" stroke="black" d="M757.59,-996.37C756.88,-988.15 756.06,-978.66 755.28,-969.73"/>
<polygon fill="black" stroke="black" points="758.76,-969.27 754.41,-959.61 751.78,-969.87 758.76,-969.27"/>
</g>
<!-- 2732569386480 -->
<g id="node18" class="node">
<title>2732569386480</title>
<polygon fill="none" stroke="black" points="549,-249.5 549,-295.5 758,-295.5 758,-249.5 549,-249.5"/>
<text text-anchor="middle" x="587" y="-280.3" font-family="Times New Roman,serif" font-size="14.00">dropout_2</text>
<polyline fill="none" stroke="black" points="549,-272.5 625,-272.5 "/>
<text text-anchor="middle" x="587" y="-257.3" font-family="Times New Roman,serif" font-size="14.00">Dropout</text>
<polyline fill="none" stroke="black" points="625,-249.5 625,-295.5 "/>
<text text-anchor="middle" x="653" y="-280.3" font-family="Times New Roman,serif" font-size="14.00">input:</text>
<polyline fill="none" stroke="black" points="625,-272.5 681,-272.5 "/>
<text text-anchor="middle" x="653" y="-257.3" font-family="Times New Roman,serif" font-size="14.00">output:</text>
<polyline fill="none" stroke="black" points="681,-249.5 681,-295.5 "/>
<text text-anchor="middle" x="719.5" y="-280.3" font-family="Times New Roman,serif" font-size="14.00">(None, 16)</text>
<polyline fill="none" stroke="black" points="681,-272.5 758,-272.5 "/>
<text text-anchor="middle" x="719.5" y="-257.3" font-family="Times New Roman,serif" font-size="14.00">(None, 16)</text>
</g>
<!-- 2731964710816&#45;&gt;2732569386480 -->
<g id="edge17" class="edge">
<title>2731964710816&#45;&gt;2732569386480</title>
<path fill="none" stroke="black" d="M657.86,-332.37C657.25,-324.15 656.55,-314.66 655.89,-305.73"/>
<polygon fill="black" stroke="black" points="659.37,-305.32 655.14,-295.61 652.39,-305.84 659.37,-305.32"/>
</g>
<!-- 2732480896352 -->
<g id="node19" class="node">
<title>2732480896352</title>
<polygon fill="none" stroke="black" points="313,-830.5 313,-876.5 560,-876.5 560,-830.5 313,-830.5"/>
<text text-anchor="middle" x="332" y="-861.3" font-family="Times New Roman,serif" font-size="14.00">dot</text>
<polyline fill="none" stroke="black" points="313,-853.5 351,-853.5 "/>
<text text-anchor="middle" x="332" y="-838.3" font-family="Times New Roman,serif" font-size="14.00">Dot</text>
<polyline fill="none" stroke="black" points="351,-830.5 351,-876.5 "/>
<text text-anchor="middle" x="379" y="-861.3" font-family="Times New Roman,serif" font-size="14.00">input:</text>
<polyline fill="none" stroke="black" points="351,-853.5 407,-853.5 "/>
<text text-anchor="middle" x="379" y="-838.3" font-family="Times New Roman,serif" font-size="14.00">output:</text>
<polyline fill="none" stroke="black" points="407,-830.5 407,-876.5 "/>
<text text-anchor="middle" x="483.5" y="-861.3" font-family="Times New Roman,serif" font-size="14.00">[(None, 50), (None, 50)]</text>
<polyline fill="none" stroke="black" points="407,-853.5 560,-853.5 "/>
<text text-anchor="middle" x="483.5" y="-838.3" font-family="Times New Roman,serif" font-size="14.00">(None, 1)</text>
</g>
<!-- 2731939721760&#45;&gt;2732480896352 -->
<g id="edge18" class="edge">
<title>2731939721760&#45;&gt;2732480896352</title>
<path fill="none" stroke="black" d="M239.19,-913.47C274.44,-902.94 316.8,-890.28 353.21,-879.39"/>
<polygon fill="black" stroke="black" points="354.24,-882.74 362.82,-876.52 352.24,-876.03 354.24,-882.74"/>
</g>
<!-- 2732480970864&#45;&gt;2732480896352 -->
<g id="edge19" class="edge">
<title>2732480970864&#45;&gt;2732480896352</title>
<path fill="none" stroke="black" d="M666.57,-913.47C625.03,-902.83 575.03,-890.01 532.27,-879.05"/>
<polygon fill="black" stroke="black" points="532.97,-875.61 522.41,-876.52 531.23,-882.4 532.97,-875.61"/>
</g>
<!-- 2732569384896 -->
<g id="node20" class="node">
<title>2732569384896</title>
<polygon fill="none" stroke="black" points="540.5,-166.5 540.5,-212.5 754.5,-212.5 754.5,-166.5 540.5,-166.5"/>
<text text-anchor="middle" x="581" y="-197.3" font-family="Times New Roman,serif" font-size="14.00">mlp_output</text>
<polyline fill="none" stroke="black" points="540.5,-189.5 621.5,-189.5 "/>
<text text-anchor="middle" x="581" y="-174.3" font-family="Times New Roman,serif" font-size="14.00">Dense</text>
<polyline fill="none" stroke="black" points="621.5,-166.5 621.5,-212.5 "/>
<text text-anchor="middle" x="649.5" y="-197.3" font-family="Times New Roman,serif" font-size="14.00">input:</text>
<polyline fill="none" stroke="black" points="621.5,-189.5 677.5,-189.5 "/>
<text text-anchor="middle" x="649.5" y="-174.3" font-family="Times New Roman,serif" font-size="14.00">output:</text>
<polyline fill="none" stroke="black" points="677.5,-166.5 677.5,-212.5 "/>
<text text-anchor="middle" x="716" y="-197.3" font-family="Times New Roman,serif" font-size="14.00">(None, 16)</text>
<polyline fill="none" stroke="black" points="677.5,-189.5 754.5,-189.5 "/>
<text text-anchor="middle" x="716" y="-174.3" font-family="Times New Roman,serif" font-size="14.00">(None, 8)</text>
</g>
<!-- 2732569386480&#45;&gt;2732569384896 -->
<g id="edge20" class="edge">
<title>2732569386480&#45;&gt;2732569384896</title>
<path fill="none" stroke="black" d="M651.86,-249.37C651.25,-241.15 650.55,-231.66 649.89,-222.73"/>
<polygon fill="black" stroke="black" points="653.37,-222.32 649.14,-212.61 646.39,-222.84 653.37,-222.32"/>
</g>
<!-- 2731964709376 -->
<g id="node21" class="node">
<title>2731964709376</title>
<polygon fill="none" stroke="black" points="422,-83.5 422,-129.5 715,-129.5 715,-83.5 422,-83.5"/>
<text text-anchor="middle" x="470.5" y="-114.3" font-family="Times New Roman,serif" font-size="14.00">concatenate_1</text>
<polyline fill="none" stroke="black" points="422,-106.5 519,-106.5 "/>
<text text-anchor="middle" x="470.5" y="-91.3" font-family="Times New Roman,serif" font-size="14.00">Concatenate</text>
<polyline fill="none" stroke="black" points="519,-83.5 519,-129.5 "/>
<text text-anchor="middle" x="547" y="-114.3" font-family="Times New Roman,serif" font-size="14.00">input:</text>
<polyline fill="none" stroke="black" points="519,-106.5 575,-106.5 "/>
<text text-anchor="middle" x="547" y="-91.3" font-family="Times New Roman,serif" font-size="14.00">output:</text>
<polyline fill="none" stroke="black" points="575,-83.5 575,-129.5 "/>
<text text-anchor="middle" x="645" y="-114.3" font-family="Times New Roman,serif" font-size="14.00">[(None, 1), (None, 8)]</text>
<polyline fill="none" stroke="black" points="575,-106.5 715,-106.5 "/>
<text text-anchor="middle" x="645" y="-91.3" font-family="Times New Roman,serif" font-size="14.00">(None, 9)</text>
</g>
<!-- 2732480896352&#45;&gt;2731964709376 -->
<g id="edge21" class="edge">
<title>2732480896352&#45;&gt;2731964709376</title>
<path fill="none" stroke="black" d="M451.58,-830.25C470.78,-799.71 501.5,-742.4 501.5,-688.5 501.5,-688.5 501.5,-688.5 501.5,-271.5 501.5,-222.75 511.6,-210.5 531.5,-166 535.69,-156.64 541.19,-147.01 546.68,-138.35"/>
<polygon fill="black" stroke="black" points="549.78,-139.99 552.33,-129.71 543.92,-136.16 549.78,-139.99"/>
</g>
<!-- 2732569384896&#45;&gt;2731964709376 -->
<g id="edge22" class="edge">
<title>2732569384896&#45;&gt;2731964709376</title>
<path fill="none" stroke="black" d="M625.91,-166.37C617.03,-157.26 606.61,-146.58 597.11,-136.83"/>
<polygon fill="black" stroke="black" points="599.55,-134.32 590.06,-129.61 594.54,-139.21 599.55,-134.32"/>
</g>
<!-- 2732595047632 -->
<g id="node22" class="node">
<title>2732595047632</title>
<polygon fill="none" stroke="black" points="479,-0.5 479,-46.5 658,-46.5 658,-0.5 479,-0.5"/>
<text text-anchor="middle" x="505.5" y="-31.3" font-family="Times New Roman,serif" font-size="14.00">output</text>
<polyline fill="none" stroke="black" points="479,-23.5 532,-23.5 "/>
<text text-anchor="middle" x="505.5" y="-8.3" font-family="Times New Roman,serif" font-size="14.00">Dense</text>
<polyline fill="none" stroke="black" points="532,-0.5 532,-46.5 "/>
<text text-anchor="middle" x="560" y="-31.3" font-family="Times New Roman,serif" font-size="14.00">input:</text>
<polyline fill="none" stroke="black" points="532,-23.5 588,-23.5 "/>
<text text-anchor="middle" x="560" y="-8.3" font-family="Times New Roman,serif" font-size="14.00">output:</text>
<polyline fill="none" stroke="black" points="588,-0.5 588,-46.5 "/>
<text text-anchor="middle" x="623" y="-31.3" font-family="Times New Roman,serif" font-size="14.00">(None, 9)</text>
<polyline fill="none" stroke="black" points="588,-23.5 658,-23.5 "/>
<text text-anchor="middle" x="623" y="-8.3" font-family="Times New Roman,serif" font-size="14.00">(None, 1)</text>
</g>
<!-- 2731964709376&#45;&gt;2732595047632 -->
<g id="edge23" class="edge">
<title>2731964709376&#45;&gt;2732595047632</title>
<path fill="none" stroke="black" d="M568.5,-83.37C568.5,-75.15 568.5,-65.66 568.5,-56.73"/>
<polygon fill="black" stroke="black" points="572,-56.61 568.5,-46.61 565,-56.61 572,-56.61"/>
</g>
</g>
</svg>
